<svg width="30" height="30" viewBox="0 0 30 30" fill="none" xmlns="http://www.w3.org/2000/svg">
<circle cx="15" cy="15" r="15" fill="#17A12D"/>
<path d="M18.266 10.9981C19.4155 11.3097 20.2144 11.7039 20.9411 12.1866C22.0158 12.9006 22.4765 14.187 22.35 15.4284C22.2966 15.9531 21.8847 16.2039 21.4071 16.0682L20.3289 15.7618C19.4743 15.5189 19.047 15.3975 18.7865 15.0763C18.5259 14.7551 18.4953 14.3119 18.4339 13.4256L18.266 10.9981ZM18.266 10.9981C15.9393 10.3674 13.2769 10.3667 10.9474 10.9981M10.9474 10.9981C9.79791 11.3097 8.99905 11.7039 8.27237 12.1866C7.19766 12.9005 6.73689 14.187 6.86342 15.4284C6.91685 15.953 7.32869 16.2039 7.8063 16.0682L8.88451 15.7618C9.73913 15.5189 10.1664 15.3975 10.427 15.0763C10.6875 14.7551 10.7182 14.3119 10.7795 13.4256L10.9474 10.9981Z" stroke="white" stroke-width="1.43578" stroke-linejoin="round"/>
</svg>
